<?xml version="1.0" standalone="no"?>
<!DOCTYPE svg PUBLIC "-//W3C//DTD SVG 20010904//EN"
 "http://www.w3.org/TR/2001/REC-SVG-20010904/DTD/svg10.dtd">
<svg version="1.0" xmlns="http://www.w3.org/2000/svg"
 width="700.000000pt" height="700.000000pt" viewBox="0 0 700.000000 700.000000"
 preserveAspectRatio="xMidYMid meet">
<metadata>
Created by potrace 1.14, written by Peter Selinger 2001-2017
</metadata>
<g transform="translate(0.000000,700.000000) scale(0.100000,-0.100000)"
fill="#000000" stroke="none">
<path d="M2360 3485 l0 -1275 155 0 155 0 0 570 0 570 550 0 550 0 0 140 0
140 -550 0 -550 0 0 425 0 425 610 0 610 0 0 140 0 140 -765 0 -765 0 0 -1275z"/>
<path d="M4402 2636 c-62 -20 -106 -58 -136 -118 -58 -117 -11 -249 108 -304
85 -40 170 -28 237 33 56 51 81 104 81 173 0 150 -149 261 -290 216z"/>
</g>
</svg>
